<mxfile host="app.diagrams.net" agent="Mozilla/5.0 (Windows NT 10.0; Win64; x64) AppleWebKit/537.36 (KHTML, like Gecko) Chrome/130.0.0.0 Safari/537.36" version="24.8.4">
  <diagram name="Page-1" id="yUc5FJV5IK-kU0rxWlRH">
    <mxGraphModel dx="1597" dy="406" grid="1" gridSize="10" guides="1" tooltips="1" connect="1" arrows="1" fold="1" page="1" pageScale="1" pageWidth="850" pageHeight="1100" math="0" shadow="0">
      <root>
        <mxCell id="0" />
        <mxCell id="1" parent="0" />
        <mxCell id="jy0_bnS4JlHRImTQFUvG-19" value="Flowchart for Prime Number" style="swimlane;whiteSpace=wrap;html=1;" vertex="1" parent="1">
          <mxGeometry x="-770" y="90" width="650" height="840" as="geometry" />
        </mxCell>
        <mxCell id="jy0_bnS4JlHRImTQFUvG-1" value="Start" style="ellipse;whiteSpace=wrap;html=1;" vertex="1" parent="jy0_bnS4JlHRImTQFUvG-19">
          <mxGeometry x="200" y="50" width="120" height="80" as="geometry" />
        </mxCell>
        <mxCell id="jy0_bnS4JlHRImTQFUvG-2" value="" style="endArrow=classic;html=1;rounded=0;exitX=0.5;exitY=1;exitDx=0;exitDy=0;" edge="1" parent="jy0_bnS4JlHRImTQFUvG-19" source="jy0_bnS4JlHRImTQFUvG-1">
          <mxGeometry width="50" height="50" relative="1" as="geometry">
            <mxPoint x="190" y="290" as="sourcePoint" />
            <mxPoint x="260" y="190" as="targetPoint" />
          </mxGeometry>
        </mxCell>
        <mxCell id="jy0_bnS4JlHRImTQFUvG-4" value="Enter number" style="shape=parallelogram;perimeter=parallelogramPerimeter;whiteSpace=wrap;html=1;fixedSize=1;" vertex="1" parent="jy0_bnS4JlHRImTQFUvG-19">
          <mxGeometry x="130" y="190" width="260" height="60" as="geometry" />
        </mxCell>
        <mxCell id="jy0_bnS4JlHRImTQFUvG-5" value="Is J Divides number?" style="rhombus;whiteSpace=wrap;html=1;" vertex="1" parent="jy0_bnS4JlHRImTQFUvG-19">
          <mxGeometry x="180" y="430" width="160" height="100" as="geometry" />
        </mxCell>
        <mxCell id="jy0_bnS4JlHRImTQFUvG-6" value="" style="endArrow=classic;html=1;rounded=0;exitX=0.5;exitY=1;exitDx=0;exitDy=0;entryX=0.44;entryY=0.017;entryDx=0;entryDy=0;entryPerimeter=0;" edge="1" parent="jy0_bnS4JlHRImTQFUvG-19" target="jy0_bnS4JlHRImTQFUvG-7">
          <mxGeometry width="50" height="50" relative="1" as="geometry">
            <mxPoint x="259.5" y="250" as="sourcePoint" />
            <mxPoint x="259.5" y="310" as="targetPoint" />
          </mxGeometry>
        </mxCell>
        <mxCell id="jy0_bnS4JlHRImTQFUvG-7" value="for J in 2 .. sqrt(number)" style="rounded=0;whiteSpace=wrap;html=1;" vertex="1" parent="jy0_bnS4JlHRImTQFUvG-19">
          <mxGeometry x="130" y="310" width="300" height="60" as="geometry" />
        </mxCell>
        <mxCell id="jy0_bnS4JlHRImTQFUvG-8" value="" style="endArrow=classic;html=1;rounded=0;exitX=0.5;exitY=1;exitDx=0;exitDy=0;entryX=0.44;entryY=0.017;entryDx=0;entryDy=0;entryPerimeter=0;" edge="1" parent="jy0_bnS4JlHRImTQFUvG-19">
          <mxGeometry width="50" height="50" relative="1" as="geometry">
            <mxPoint x="258.75" y="370" as="sourcePoint" />
            <mxPoint x="261.25" y="431" as="targetPoint" />
          </mxGeometry>
        </mxCell>
        <mxCell id="jy0_bnS4JlHRImTQFUvG-9" value="" style="endArrow=classic;html=1;rounded=0;exitX=0.5;exitY=1;exitDx=0;exitDy=0;" edge="1" parent="jy0_bnS4JlHRImTQFUvG-19" source="jy0_bnS4JlHRImTQFUvG-5">
          <mxGeometry width="50" height="50" relative="1" as="geometry">
            <mxPoint x="250" y="580" as="sourcePoint" />
            <mxPoint x="260" y="580" as="targetPoint" />
          </mxGeometry>
        </mxCell>
        <mxCell id="jy0_bnS4JlHRImTQFUvG-12" value="yes" style="edgeLabel;html=1;align=center;verticalAlign=middle;resizable=0;points=[];" vertex="1" connectable="0" parent="jy0_bnS4JlHRImTQFUvG-9">
          <mxGeometry x="-0.12" y="1" relative="1" as="geometry">
            <mxPoint as="offset" />
          </mxGeometry>
        </mxCell>
        <mxCell id="jy0_bnS4JlHRImTQFUvG-10" value="return false ie not a prime" style="rounded=0;whiteSpace=wrap;html=1;" vertex="1" parent="jy0_bnS4JlHRImTQFUvG-19">
          <mxGeometry x="180" y="580" width="210" height="60" as="geometry" />
        </mxCell>
        <mxCell id="jy0_bnS4JlHRImTQFUvG-11" value="" style="endArrow=classic;html=1;rounded=0;exitX=0;exitY=0.5;exitDx=0;exitDy=0;entryX=0;entryY=0.5;entryDx=0;entryDy=0;" edge="1" parent="jy0_bnS4JlHRImTQFUvG-19" source="jy0_bnS4JlHRImTQFUvG-5" target="jy0_bnS4JlHRImTQFUvG-7">
          <mxGeometry width="50" height="50" relative="1" as="geometry">
            <mxPoint x="120" y="460" as="sourcePoint" />
            <mxPoint x="110" y="340" as="targetPoint" />
            <Array as="points">
              <mxPoint x="40" y="480" />
              <mxPoint x="40" y="340" />
            </Array>
          </mxGeometry>
        </mxCell>
        <mxCell id="jy0_bnS4JlHRImTQFUvG-13" value="no" style="edgeLabel;html=1;align=center;verticalAlign=middle;resizable=0;points=[];" vertex="1" connectable="0" parent="jy0_bnS4JlHRImTQFUvG-11">
          <mxGeometry x="-0.7135" y="2" relative="1" as="geometry">
            <mxPoint as="offset" />
          </mxGeometry>
        </mxCell>
        <mxCell id="jy0_bnS4JlHRImTQFUvG-14" value="" style="endArrow=classic;html=1;rounded=0;exitX=1;exitY=0.5;exitDx=0;exitDy=0;" edge="1" parent="jy0_bnS4JlHRImTQFUvG-19" source="jy0_bnS4JlHRImTQFUvG-7">
          <mxGeometry width="50" height="50" relative="1" as="geometry">
            <mxPoint x="490" y="340" as="sourcePoint" />
            <mxPoint x="500" y="660" as="targetPoint" />
            <Array as="points">
              <mxPoint x="500" y="340" />
            </Array>
          </mxGeometry>
        </mxCell>
        <mxCell id="jy0_bnS4JlHRImTQFUvG-15" value="return true ie number is prime" style="rounded=0;whiteSpace=wrap;html=1;" vertex="1" parent="jy0_bnS4JlHRImTQFUvG-19">
          <mxGeometry x="380" y="660" width="210" height="60" as="geometry" />
        </mxCell>
        <mxCell id="jy0_bnS4JlHRImTQFUvG-16" value="Stop" style="ellipse;whiteSpace=wrap;html=1;" vertex="1" parent="jy0_bnS4JlHRImTQFUvG-19">
          <mxGeometry x="110" y="740" width="510" height="80" as="geometry" />
        </mxCell>
        <mxCell id="jy0_bnS4JlHRImTQFUvG-17" value="" style="endArrow=classic;html=1;rounded=0;exitX=0.5;exitY=1;exitDx=0;exitDy=0;entryX=0.41;entryY=-0.025;entryDx=0;entryDy=0;entryPerimeter=0;" edge="1" parent="jy0_bnS4JlHRImTQFUvG-19" target="jy0_bnS4JlHRImTQFUvG-16">
          <mxGeometry width="50" height="50" relative="1" as="geometry">
            <mxPoint x="320" y="640" as="sourcePoint" />
            <mxPoint x="323" y="730" as="targetPoint" />
          </mxGeometry>
        </mxCell>
        <mxCell id="jy0_bnS4JlHRImTQFUvG-18" value="" style="endArrow=classic;html=1;rounded=0;exitX=0.5;exitY=1;exitDx=0;exitDy=0;entryX=0.753;entryY=0.075;entryDx=0;entryDy=0;entryPerimeter=0;" edge="1" parent="jy0_bnS4JlHRImTQFUvG-19" target="jy0_bnS4JlHRImTQFUvG-16">
          <mxGeometry width="50" height="50" relative="1" as="geometry">
            <mxPoint x="491" y="720" as="sourcePoint" />
            <mxPoint x="490" y="818" as="targetPoint" />
          </mxGeometry>
        </mxCell>
      </root>
    </mxGraphModel>
  </diagram>
</mxfile>
